<svg width="72" height="82" viewBox="0 0 72 82" fill="none" xmlns="http://www.w3.org/2000/svg">
<path d="M0 16.5001L18 32.8334V20.5834H54C56.3869 20.5834 58.6761 21.4438 60.364 22.9754C62.0518 24.5069 63 26.5841 63 28.7501C63 30.916 62.0518 32.9932 60.364 34.5248C58.6761 36.0563 56.3869 36.9167 54 36.9167H18C13.2261 36.9167 8.64773 38.6376 5.27208 41.7007C1.89642 44.7638 0 48.9182 0 53.2501C0 57.582 1.89642 61.7364 5.27208 64.7995C8.64773 67.8626 13.2261 69.5834 18 69.5834H54V81.8334L72 65.5001L54 49.1667V61.4168H18C15.6131 61.4168 13.3239 60.5563 11.636 59.0248C9.94821 57.4932 9 55.416 9 53.2501C9 51.0841 9.94821 49.0069 11.636 47.4754C13.3239 45.9438 15.6131 45.0834 18 45.0834H54C58.7739 45.0834 63.3523 43.3626 66.7279 40.2995C70.1036 37.2364 72 33.082 72 28.7501C72 24.4182 70.1036 20.2638 66.7279 17.2007C63.3523 14.1376 58.7739 12.4167 54 12.4167H18V0.166748L0 16.5001Z" fill="#0075FF"/>
</svg>
